<?xml version="1.0" standalone="no"?>
<!DOCTYPE svg PUBLIC "-//W3C//DTD SVG 20010904//EN"
 "http://www.w3.org/TR/2001/REC-SVG-20010904/DTD/svg10.dtd">
<svg version="1.0" xmlns="http://www.w3.org/2000/svg"
 width="1200.000000pt" height="1200.000000pt" viewBox="0 0 1200.000000 1200.000000"
 preserveAspectRatio="xMidYMid meet">

<g transform="translate(0.000000,1200.000000) scale(0.100000,-0.100000)"
fill="#000000" stroke="none">
<path d="M5320 6060 l0 -910 2590 0 2590 0 0 910 0 910 -2590 0 -2590 0 0
-910z m3251 580 c54 -30 61 -121 13 -172 -67 -69 -181 3 -159 101 14 65 89
101 146 71z m-2235 -520 c111 -283 210 -548 219 -587 l17 -73 58 0 57 0 -1
-37 -1 -38 -202 -3 -203 -2 0 35 c0 31 3 35 25 35 32 0 75 41 75 72 0 13 -16
71 -37 131 l-37 107 -182 0 c-100 0 -201 -3 -226 -6 l-45 -6 -42 -132 c-23
-72 -45 -137 -47 -143 -4 -10 11 -13 60 -13 l66 0 0 -40 0 -40 -167 2 -168 3
0 30 c0 24 5 31 24 33 39 6 69 31 90 75 18 38 411 1103 411 1114 0 2 12 3 27
1 26 -3 35 -23 229 -518z m3554 260 l0 -120 145 0 145 0 0 -40 0 -40 -145 0
-145 0 0 -292 c0 -172 4 -308 11 -330 32 -116 138 -129 241 -30 36 34 37 35
62 18 15 -9 26 -19 26 -23 0 -11 -63 -88 -93 -113 -17 -13 -53 -32 -81 -42
-137 -47 -257 3 -308 130 -22 55 -23 67 -23 364 l0 307 -65 3 -65 3 -3 43 c-3
38 -1 42 20 42 41 0 101 44 140 100 20 30 37 58 37 61 1 4 8 23 16 43 13 32
20 36 50 36 l35 0 0 -120z m-2765 -105 c22 -4 61 -17 88 -30 l47 -24 0 30 c0
29 2 30 38 27 l37 -3 3 -158 3 -158 -33 3 c-29 3 -32 7 -43 56 -17 75 -61 141
-114 169 -131 69 -291 -20 -252 -140 17 -50 55 -81 156 -127 190 -87 237 -113
272 -147 122 -122 87 -310 -72 -384 -109 -51 -246 -49 -370 6 l-52 22 5 -23
c4 -22 1 -24 -37 -24 -51 0 -53 5 -49 175 l3 130 24 0 c21 0 27 -7 37 -48 41
-161 217 -243 362 -170 46 24 77 80 67 124 -15 68 -65 102 -278 189 -153 63
-216 138 -217 256 0 137 89 236 230 254 55 8 70 7 145 -5z m800 0 c22 -4 61
-17 88 -30 l47 -24 0 30 c0 29 2 30 38 27 l37 -3 3 -158 3 -158 -33 3 c-29 3
-32 7 -43 56 -17 75 -61 141 -114 169 -131 69 -291 -20 -252 -140 17 -50 55
-81 156 -127 190 -87 237 -113 272 -147 122 -122 87 -310 -72 -384 -109 -51
-246 -49 -370 6 l-52 22 5 -23 c4 -22 1 -24 -37 -24 -51 0 -53 5 -49 175 l3
130 24 0 c21 0 27 -7 37 -48 41 -161 217 -243 362 -170 46 24 77 80 67 124
-15 68 -65 102 -278 189 -153 63 -216 138 -217 256 0 137 89 236 230 254 55 8
70 7 145 -5z m1300 0 c22 -4 61 -17 88 -30 l47 -24 0 30 c0 29 2 30 38 27 l37
-3 3 -158 3 -158 -33 3 c-29 3 -32 7 -43 56 -17 75 -61 141 -114 169 -131 69
-291 -20 -252 -140 17 -50 55 -81 156 -127 190 -87 237 -113 272 -147 122
-122 87 -310 -72 -384 -109 -51 -246 -49 -370 6 l-52 22 5 -23 c4 -22 1 -24
-36 -24 -38 0 -41 2 -47 33 -3 17 -5 86 -3 152 3 120 3 120 27 120 21 0 27 -7
37 -48 33 -130 154 -212 285 -194 93 12 157 75 145 142 -14 73 -62 106 -279
195 -153 63 -216 138 -217 256 0 137 89 236 230 254 55 8 70 7 145 -5z m-625
-407 l0 -413 55 3 55 4 0 -41 0 -41 -185 0 -185 0 0 30 c0 23 5 30 19 30 30 0
70 38 75 73 3 18 7 168 8 335 l3 302 -57 0 -58 0 0 39 0 38 73 5 c46 3 86 12
112 26 22 12 50 21 63 22 l22 0 0 -412z"/>
<path d="M6067 6343 c-3 -10 -44 -125 -91 -256 -47 -131 -86 -240 -86 -243 0
-2 86 -4 191 -4 149 0 190 3 187 13 -53 147 -183 494 -188 500 -4 5 -10 0 -13
-10z"/>
<path d="M2948 6678 c-20 -11 -68 -22 -107 -25 l-71 -6 0 -33 0 -34 63 0 62 0
-3 -277 c-1 -153 -3 -399 -5 -546 l-2 -269 -28 -24 c-15 -13 -37 -24 -48 -24
-14 0 -19 -7 -19 -30 l0 -30 181 0 180 0 -3 37 -3 37 -53 -3 -52 -3 2 179 3
178 28 3 c39 5 50 -7 178 -183 60 -83 130 -171 154 -195 l46 -45 99 -3 100 -4
0 30 c0 23 -5 31 -22 36 -42 10 -95 65 -211 214 -63 82 -134 165 -158 186
l-43 36 104 106 c137 139 189 180 255 200 46 15 55 22 55 41 l0 23 -160 0
-160 0 0 -36 0 -37 51 7 52 7 -153 -158 c-133 -138 -156 -158 -184 -158 l-31
0 -3 413 -2 412 -28 -1 c-15 -1 -44 -10 -64 -21z"/>
<path d="M4368 6678 c-20 -11 -68 -22 -107 -25 l-71 -6 0 -33 0 -34 63 0 62 0
-5 -538 c-5 -496 -6 -540 -23 -565 -10 -16 -31 -30 -47 -34 -25 -4 -30 -10
-30 -34 l0 -29 181 0 180 0 -3 37 -3 37 -52 -3 -53 -2 0 625 0 626 -27 -1
c-16 -1 -45 -10 -65 -21z"/>
<path d="M4848 6678 c-20 -11 -68 -22 -107 -25 l-71 -6 0 -33 0 -34 63 0 62 0
-5 -538 c-5 -496 -6 -540 -23 -565 -10 -16 -31 -30 -47 -34 -25 -4 -30 -10
-30 -34 l0 -29 181 0 180 0 -3 37 -3 37 -52 -3 -53 -2 0 625 0 626 -27 -1
c-16 -1 -45 -10 -65 -21z"/>
<path d="M3859 6621 c-39 -39 -41 -106 -5 -148 30 -34 92 -39 125 -9 46 41 43
122 -4 164 -37 31 -80 29 -116 -7z"/>
<path d="M2081 6614 c-143 -38 -224 -145 -224 -294 0 -162 63 -232 339 -373
104 -53 205 -110 226 -127 45 -37 88 -121 88 -172 0 -48 -23 -105 -58 -141
-118 -125 -386 -88 -481 67 -12 19 -29 64 -38 100 -16 65 -16 66 -49 66 -34 0
-34 0 -34 -48 0 -27 3 -110 7 -185 l6 -137 44 0 c41 0 43 1 43 30 0 36 0 36
50 10 67 -34 150 -51 255 -52 147 0 245 33 321 109 75 74 103 203 69 318 -14
50 -28 70 -83 125 -59 58 -89 76 -252 157 -198 97 -262 143 -291 207 -88 194
126 351 338 250 82 -39 139 -122 163 -236 11 -55 13 -58 41 -58 l29 0 0 195 0
195 -46 0 -46 0 6 -35 c8 -41 5 -42 -39 -15 -85 52 -273 74 -384 44z"/>
<path d="M3905 6249 c-22 -10 -60 -19 -85 -19 -76 -1 -90 -8 -90 -47 l0 -35
61 4 60 3 -3 -325 c-3 -300 -4 -327 -22 -353 -10 -15 -32 -31 -48 -34 -23 -4
-28 -11 -28 -34 l0 -29 175 0 175 0 0 38 0 37 -50 -3 -50 -4 0 411 0 411 -27
-1 c-16 0 -46 -9 -68 -20z"/>
</g>
</svg>
